<?xml version="1.0" encoding="utf-8"?>
<!-- Generator: Adobe Illustrator 23.0.4, SVG Export Plug-In . SVG Version: 6.00 Build 0)  -->
<svg version="1.1" id="Layer_1" xmlns="http://www.w3.org/2000/svg" xmlns:xlink="http://www.w3.org/1999/xlink" x="0px" y="0px"
	 viewBox="0 0 300 282" style="enable-background:new 0 0 300 282;" xml:space="preserve">
<style type="text/css">
	.st0{fill:#E31F2B;}
	.st1{fill:#FFFFFF;}
</style>
<path class="st0" d="M24.5,2.03c0,0-22.64,0-22.64,22.67v233.63c0,0,0,22.68,22.64,22.68h250.85c0,0,22.65,0,22.65-22.68V24.7
	c0,0,0-22.67-22.65-22.67H24.5z"/>
<g>
	<path class="st1" d="M266.3,148.43c-8.95,0-14.55-6.26-15.89-17.06c0,3.02-12.96,18.14-31.76,18.14
		c-28.17,0-47.41-19.02-47.41-46.02c0-26.56,20.57-46.22,48.31-46.22c25.72,0,45.63,20.3,45.63,46.45v25.26
		c0,4.32,0.22,10.15,7.83,10.15c1.9,0,3.58-0.76,4.98-1.77V56.69c0-6.92-5.59-12.52-12.5-12.52h-92.56c-6.9,0-12.51,5.6-12.51,12.52
		v92.62c0,6.92,5.61,12.53,12.51,12.53h92.56c6.91,0,12.5-5.61,12.5-12.53v-4.67C274.89,146.86,270.98,148.43,266.3,148.43"/>
	<g>
		<path class="st1" d="M152.11,148.37c-2.18-0.38-4.26-0.55-6.21-0.55c-3.53,0-6.64,0.64-9.34,1.96c-2.71,1.32-4.81,3.47-6.34,6.44
			c-1.53,2.97-2.29,8-2.29,15.11v4.31h12.02v9.31h-12.02v51.92h-11.17v-51.92h-7.92v-9.31h7.92v-3.12c0-8.81,0.99-15.32,2.97-19.54
			c1.99-4.24,5.06-7.7,9.21-10.42c4.15-2.71,9.66-4.07,16.49-4.07c2.21,0,4.43,0.1,6.66,0.3V148.37z"/>
		<path class="st1" d="M68.92,208.71v-28.7c-3.94-1.04-7.62-1.55-11.01-1.55c-6.84,0-12.57,2.65-17.13,7.96
			c-4.55,5.32-6.84,12.56-6.84,21.7c0,6.63,1.24,11.64,3.73,15.02c2.5,3.36,5.34,5.05,8.52,5.05c3.47,0,7.3-1.75,11.49-5.27
			C61.86,219.41,65.61,214.68,68.92,208.71 M68.94,221.94c-3.39,5.6-7.46,9.81-12.24,12.65c-4.74,2.84-9.14,4.26-13.12,4.26
			c-5.57,0-10.6-2.4-15.05-7.23c-4.44-4.83-6.66-12.15-6.66-21.94c0-7.76,1.48-14.65,4.43-20.74c2.94-6.07,6.89-10.88,11.83-14.41
			c4.96-3.52,11.06-5.3,18.35-5.3c2.11,0,5.29,0.24,9.53,0.71c0.64,0.09,1.58,0.19,2.85,0.32h11.1v47.08
			c0,8.07,0.7,14.31,2.28,19.35H70.66C69.9,233.02,69.4,228.3,68.94,221.94"/>
		<rect x="92.37" y="140.11" class="st1" width="11.46" height="96.65"/>
		<path class="st1" d="M186.91,208.71v-28.7c-3.96-1.04-7.63-1.55-11.02-1.55c-6.86,0-12.56,2.65-17.13,7.96
			c-4.57,5.32-6.85,12.56-6.85,21.7c0,6.63,1.24,11.64,3.75,15.02c2.48,3.36,5.33,5.05,8.52,5.05c3.46,0,7.29-1.75,11.49-5.27
			C179.85,219.41,183.58,214.68,186.91,208.71 M186.92,221.94c-3.38,5.6-7.46,9.81-12.23,12.65c-4.77,2.84-9.14,4.26-13.13,4.26
			c-5.58,0-10.6-2.4-15.05-7.23c-4.44-4.83-6.67-12.15-6.67-21.94c0-7.76,1.49-14.65,4.42-20.74c2.96-6.07,6.91-10.88,11.85-14.41
			c4.93-3.52,11.06-5.3,18.36-5.3c2.11,0,5.29,0.24,9.53,0.71c0.63,0.09,1.58,0.19,2.85,0.32h11.1v47.08
			c0,8.07,0.81,14.63,2.38,19.66h-11.59C187.97,233.33,187.37,228.3,186.92,221.94"/>
	</g>
</g>
</svg>
